<?xml version="1.0" encoding="UTF-8"?>
<svg version="1.1" xmlns="http://www.w3.org/2000/svg" width="666" height="375">
<path d="M0 0 C1.2221769 -0.00796419 2.44435381 -0.01592839 3.70356637 -0.02413392 C5.0565854 -0.01272253 6.40960133 -0.00094016 7.76261425 0.01117325 C9.20236314 0.00942887 10.64211079 0.00592641 12.08185166 0.00081658 C16.03846514 -0.00813359 19.99464606 0.00788054 23.95120442 0.02792883 C28.21768662 0.04518895 32.48414407 0.03935815 36.75065136 0.03631973 C44.14274222 0.03422146 51.53469196 0.04678053 58.92674732 0.06927109 C69.61441869 0.10176751 80.30202176 0.11219569 90.98973718 0.11722305 C108.32944807 0.12597941 125.66908373 0.15260423 143.00875378 0.1904335 C159.85347657 0.22714477 176.69817883 0.255415 193.54293346 0.27246475 C195.11606006 0.27407274 195.11606006 0.27407274 196.72096699 0.27571321 C204.92278524 0.2840308 213.12460394 0.29185853 221.32642281 0.29953146 C261.53432289 0.33727203 301.74203465 0.41774376 341.94991589 0.49219131 C341.94991589 99.49219131 341.94991589 198.49219131 341.94991589 300.49219131 C297.86607635 310.2886001 297.86607635 310.2886001 278.02608776 309.56592178 C276.06914225 309.49642536 274.11098688 309.46381278 272.15304089 309.43359756 C248.43224521 308.62157863 213.35224057 302.42331592 195.94991589 284.49219131 C195.1726112 284.03328506 194.39530651 283.57437881 193.59444714 283.10156631 C190.58306735 281.26893933 188.21520678 279.14464766 185.63741589 276.74219131 C184.18915417 275.40607803 184.18915417 275.40607803 182.71163464 274.04297256 C181.80026745 273.20121475 180.88890026 272.35945694 179.94991589 271.49219131 C170.10360187 262.03280394 170.10360187 262.03280394 158.94991589 254.49219131 C158.94991589 253.83219131 158.94991589 253.17219131 158.94991589 252.49219131 C158.12491589 252.24469131 157.29991589 251.99719131 156.44991589 251.74219131 C153.814556 250.80099136 151.74130194 249.86894259 149.32833385 248.54468155 C144.8017643 246.26168503 140.36533997 245.26810645 135.39522839 244.40234756 C134.48870525 244.2373526 133.58218212 244.07235764 132.64818859 243.90236282 C122.10199437 242.0562008 111.47367603 240.98512631 100.82491589 239.92969131 C60.2905664 235.91154415 60.2905664 235.91154415 46.11788464 219.35156631 C38.15684286 208.87559849 34.79957226 196.70289935 32.00069714 184.09375381 C27.21996401 162.7643291 20.86135439 144.37280726 3.59835339 129.92187881 C1.94991589 128.49219131 1.94991589 128.49219131 0.57491589 127.08984756 C-1.63429253 124.91781333 -4.02079213 123.00776686 -6.42508411 121.05469131 C-7.36094349 120.29285538 -8.29680286 119.53101944 -9.26102161 118.74609756 C-11.05681393 117.29487604 -12.86586853 115.85983772 -14.69070911 114.44531631 C-25.78370631 105.26237161 -32.17010978 89.69084248 -33.8552599 75.651371 C-35.92145628 52.75232237 -32.17424845 30.10461164 -17.84695911 11.59375381 C-14.7526675 7.97477797 -14.7526675 7.97477797 -13.05008411 6.49219131 C-12.39008411 6.49219131 -11.73008411 6.49219131 -11.05008411 6.49219131 C-11.05008411 5.83219131 -11.05008411 5.17219131 -11.05008411 4.49219131 C-7.42252559 0.91187208 -5.0494227 -0.00726797 0 0 Z " fill="#03B0DF" transform="translate(324.0500841140747,-0.4921913146972656)"/>
<path d="M0 0 C0.66 0.33 1.32 0.66 2 1 C1.54625 1.721875 1.0925 2.44375 0.625 3.1875 C-0.85494358 5.74894081 -1.97217539 8.23277989 -3 11 C-3.66 11 -4.32 11 -5 11 C-7.61896089 13.82847776 -8.4739075 16.21213403 -9 20 C-9.66 20 -10.32 20 -11 20 C-17.19856224 41.30755769 -16.12264412 62.07749515 -5.4375 81.8984375 C0.47014638 91.66246415 7.80598207 99.20003812 16.6875 106.25 C39.16578465 124.11958923 49.83388461 142.09695341 55.9375 170.0625 C59.78824079 187.56323602 65.28896954 204.23917106 81.1328125 214.47265625 C95.07191327 221.89798105 111.0114692 223.47871408 126.50390625 224.70703125 C127.26406036 224.76812073 128.02421448 224.82921021 128.80740356 224.89215088 C132.63308302 225.19666613 136.45863877 225.48204684 140.28808594 225.73486328 C152.55047443 226.60703481 164.17627364 228.96478271 175.1875 234.6875 C175.85402588 235.0278125 176.52055176 235.368125 177.20727539 235.71875 C183.47521377 239.04031195 188.75081482 243.24162611 194 248 C194.82371094 248.71671875 195.64742187 249.4334375 196.49609375 250.171875 C200.4790327 253.65122397 204.26055694 257.26055694 208 261 C233.03256237 285.90352854 270.00665741 294.54391807 304.14001465 294.56378174 C319.99758631 294.45927575 335.15341446 291.94250911 350.10522461 286.56176758 C352 286 352 286 355 286 C355 288.64 355 291.28 355 294 C312.92187654 303.86946767 312.92187654 303.86946767 291.07617188 303.07373047 C289.11922637 303.00423405 287.16107099 302.97162147 285.203125 302.94140625 C261.48232933 302.12938731 226.40232469 295.93112461 209 278 C208.22269531 277.54109375 207.44539062 277.0821875 206.64453125 276.609375 C203.63315146 274.77674801 201.26529089 272.65245634 198.6875 270.25 C197.23923828 268.91388672 197.23923828 268.91388672 195.76171875 267.55078125 C194.85035156 266.70902344 193.93898438 265.86726563 193 265 C183.15368599 255.54061262 183.15368599 255.54061262 172 248 C172 247.34 172 246.68 172 246 C171.175 245.7525 170.35 245.505 169.5 245.25 C166.86464011 244.30880004 164.79138606 243.37675128 162.37841797 242.05249023 C157.85184842 239.76949371 153.41542409 238.77591514 148.4453125 237.91015625 C147.53878937 237.74516129 146.63226624 237.58016632 145.69827271 237.41017151 C135.15207849 235.56400948 124.52376014 234.49293499 113.875 233.4375 C73.34065051 229.41935284 73.34065051 229.41935284 59.16796875 212.859375 C51.20692697 202.38340717 47.84965637 190.21070803 45.05078125 177.6015625 C40.27004813 156.27213779 33.91143851 137.88061594 16.6484375 123.4296875 C15 122 15 122 13.625 120.59765625 C11.41579158 118.42562201 9.02929199 116.51557555 6.625 114.5625 C5.68914062 113.80066406 4.75328125 113.03882812 3.7890625 112.25390625 C1.99327018 110.80268473 0.18421559 109.3676464 -1.640625 107.953125 C-12.7336222 98.7701803 -19.12002567 83.19865117 -20.80517578 69.15917969 C-22.87137216 46.26013105 -19.12416434 23.61242033 -4.796875 5.1015625 C-3.26466681 3.30954509 -1.70255375 1.62898662 0 0 Z " fill="#DEF7FA" transform="translate(311,6)"/>
<path d="M0 0 C0 2.64 0 5.28 0 8 C-2.85222385 8.67608269 -5.70631293 9.34105115 -8.5625 10 C-9.36236328 10.19078125 -10.16222656 10.3815625 -10.98632812 10.578125 C-15.73172756 11.66278773 -20.09875572 12.3955607 -25 12 C-25.99 11.34 -26.98 10.68 -28 10 C-32.14776273 9.71337567 -32.14776273 9.71337567 -36 11 C-38.42254266 11.09866653 -40.81562794 11.13986024 -43.23828125 11.1328125 C-44.31495308 11.13424759 -44.31495308 11.13424759 -45.41337585 11.13571167 C-46.93403206 11.13639269 -48.45469117 11.13454386 -49.9753418 11.13037109 C-52.29287336 11.1250451 -54.61020904 11.13030653 -56.92773438 11.13671875 C-58.40625043 11.1360575 -59.88476635 11.13477535 -61.36328125 11.1328125 C-62.05303543 11.13483673 -62.74278961 11.13686096 -63.45344543 11.13894653 C-67.09431107 11.12139425 -70.45892818 10.86079887 -74 10 C-74 9.34 -74 8.68 -74 8 C-72.46182617 8.03927612 -72.46182617 8.03927612 -70.89257812 8.0793457 C-47.97264828 8.61275572 -26.76122918 8.40269222 -4.90356445 0.56176758 C-3 0 -3 0 0 0 Z " fill="#E1F5F8" transform="translate(666,292)"/>
<path d="M0 0 C6.96050253 0.38669459 11.9394075 2.63438409 18 6 C18 6.66 18 7.32 18 8 C18.556875 8.226875 19.11375 8.45375 19.6875 8.6875 C22.65239972 10.37028092 24.616515 12.56108512 27 15 C28.19372656 16.11994213 29.40260304 17.22392334 30.625 18.3125 C31.19476563 18.82425781 31.76453125 19.33601563 32.3515625 19.86328125 C34.07789419 21.28384368 34.07789419 21.28384368 37 21 C37 20.34 37 19.68 37 19 C39.475 19.99 39.475 19.99 42 21 C42 22.32 42 23.64 42 25 C42.3133042 28.21136803 42.46757052 29.5362711 44.9375 31.6875 C45.618125 32.120625 46.29875 32.55375 47 33 C47.66 33.66 48.32 34.32 49 35 C50.64991582 35.70710678 52.31562256 36.37943989 54 37 C54 37.99 54 38.98 54 40 C49.36632448 38.52171919 46.10425186 35.8359938 42.5 32.6875 C41.94441406 32.21376953 41.38882813 31.74003906 40.81640625 31.25195312 C36.75666619 27.76057667 32.97269635 24.05249081 29.26171875 20.19140625 C20.67614011 11.3075693 11.03508089 6.27648285 0 1 C0 0.67 0 0.34 0 0 Z " fill="#04BDD8" transform="translate(478,237)"/>
<path d="M0 0 C0.66 0.33 1.32 0.66 2 1 C1.54625 1.721875 1.0925 2.44375 0.625 3.1875 C-0.85494358 5.74894081 -1.97217539 8.23277989 -3 11 C-3.66 11 -4.32 11 -5 11 C-7.61896089 13.82847776 -8.4739075 16.21213403 -9 20 C-9.66 20 -10.32 20 -11 20 C-15.179539 34.36716532 -15.53043908 47.07821895 -14 62 C-16.29013653 58.5647952 -16.17842973 57.014669 -16 53 C-16.66 53 -17.32 53 -18 53 C-19.36666331 41.06537585 -19.20234878 32.1421439 -14 21 C-13.54109375 19.93910156 -13.0821875 18.87820312 -12.609375 17.78515625 C-9.41068372 10.81657882 -5.39842273 5.42582589 0 0 Z " fill="#CCFAFD" transform="translate(311,6)"/>
<path d="M0 0 C0.66 0 1.32 0 2 0 C2.66 4.62 3.32 9.24 4 14 C6.475 14.99 6.475 14.99 9 16 C9 18.64 9 21.28 9 24 C10.32 24 11.64 24 13 24 C15 27 15 27 15 29 C15.33 29.66 15.66 30.32 16 31 C15.505 32.485 15.505 32.485 15 34 C15.99 34 16.98 34 18 34 C18.33 34.99 18.66 35.98 19 37 C20.7202534 38.81961805 20.7202534 38.81961805 22.8125 40.5625 C23.49957031 41.16191406 24.18664062 41.76132813 24.89453125 42.37890625 C26.86555845 43.89648749 28.73964261 44.97902958 31 46 C29.515 46.495 29.515 46.495 28 47 C14.29421987 39.62677741 6.95119077 27.2211337 2 13 C0.73055931 8.65630086 -0.28507685 4.56122957 0 0 Z " fill="#1CBACD" transform="translate(367,176)"/>
<path d="M0 0 C-1 1 -1 1 -3.5625 1.0625 C-4.7690625 1.0315625 -4.7690625 1.0315625 -6 1 C-5.505 2.98 -5.505 2.98 -5 5 C-6.8125 5.625 -6.8125 5.625 -9 6 C-9.99 5.34 -10.98 4.68 -12 4 C-16.14776273 3.71337567 -16.14776273 3.71337567 -20 5 C-22.42254266 5.09866653 -24.81562794 5.13986024 -27.23828125 5.1328125 C-28.31495308 5.13424759 -28.31495308 5.13424759 -29.41337585 5.13571167 C-30.93403206 5.13639269 -32.45469117 5.13454386 -33.9753418 5.13037109 C-36.29287336 5.1250451 -38.61020904 5.13030653 -40.92773438 5.13671875 C-42.40625043 5.1360575 -43.88476635 5.13477535 -45.36328125 5.1328125 C-46.05303543 5.13483673 -46.74278961 5.13686096 -47.45344543 5.13894653 C-51.09431107 5.12139425 -54.45892818 4.86079887 -58 4 C-58 3.34 -58 2.68 -58 2 C-56.93265625 2.01571045 -55.8653125 2.0314209 -54.765625 2.04760742 C-50.72501471 2.10278021 -46.68443602 2.1366603 -42.64355469 2.16479492 C-40.90977339 2.1796861 -39.17602839 2.20000587 -37.44238281 2.22631836 C-27.01072549 2.38043612 -17.378389 1.88763155 -7.1875 -0.44799805 C-4.26478104 -0.95414599 -2.72877522 -1.02883353 0 0 Z " fill="#B7F7FB" transform="translate(650,298)"/>
<path d="M0 0 C1.99954746 -0.04254356 4.00041636 -0.04080783 6 0 C6.33 0.33 6.66 0.66 7 1 C8.155 1.165 9.31 1.33 10.5 1.5 C14 2 14 2 15 3 C16.82906235 3.20837419 18.66388134 3.36749659 20.5 3.5 C25.88888889 3.88888889 25.88888889 3.88888889 27 5 C29.35416713 5.02078079 31.70884535 4.99083405 34.0625 4.9375 C38.89301556 4.87485399 43.20478367 5.03139482 47.82421875 6.49609375 C52.13511661 7.49448841 56.61515696 7.46745854 61.0234375 7.65625 C64 8 64 8 66 10 C19.19225401 8.07083043 19.19225401 8.07083043 0 1 C0 0.67 0 0.34 0 0 Z " fill="#35BFD4" transform="translate(398,223)"/>
<path d="M0 0 C5.445 0.495 5.445 0.495 11 1 C11 1.33 11 1.66 11 2 C0.47158645 4.36301225 -9.50679538 5.43500893 -20.29394531 5.28125 C-22.52686135 5.24961949 -24.75906756 5.24020814 -26.9921875 5.234375 C-33.74657311 5.19173415 -40.30821868 4.92601189 -47 4 C-47 3.67 -47 3.34 -47 3 C-36.67728287 2.09469546 -26.47741297 1.8751077 -16.125 1.9375 C-14.64713696 1.94253337 -13.16927223 1.94709298 -11.69140625 1.95117188 C-8.12756805 1.96201282 -4.56379553 1.97917221 -1 2 C-0.67 1.34 -0.34 0.68 0 0 Z " fill="#1EB9CD" transform="translate(635,296)"/>
<path d="M0 0 C5.11973267 0.36056088 10.23837429 0.73351565 15.35644531 1.11694336 C17.08993303 1.24517791 18.82365533 1.37028796 20.55761719 1.49194336 C49.49472283 3.52894124 49.49472283 3.52894124 62 9 C58.64771164 10.11742945 57.26870332 9.84727505 53.875 9.125 C52.98554688 8.94195312 52.09609375 8.75890625 51.1796875 8.5703125 C49 8 49 8 48 7 C46.19188816 6.79103683 44.37783968 6.63219639 42.5625 6.5 C37.21984733 6.10992366 37.21984733 6.10992366 35 5 C33.21145335 4.85872229 31.41826517 4.77405411 29.625 4.71875 C28.55765625 4.68136719 27.4903125 4.64398438 26.390625 4.60546875 C24.71226562 4.55326172 24.71226562 4.55326172 23 4.5 C20.79153136 4.43130339 18.58318285 4.35858974 16.375 4.28125 C15.39273437 4.25095703 14.41046875 4.22066406 13.3984375 4.18945312 C11 4 11 4 9 3 C7.46331135 2.77532169 5.92031946 2.59203195 4.375 2.4375 C3.55773437 2.35371094 2.74046875 2.26992187 1.8984375 2.18359375 C1.27195312 2.12300781 0.64546875 2.06242188 0 2 C0 1.34 0 0.68 0 0 Z " fill="#B9F8FC" transform="translate(418,229)"/>
<path d="M0 0 C1.98 0 3.96 0 6 0 C6.165 0.70125 6.33 1.4025 6.5 2.125 C9.19033403 7.28147356 14.14862201 10.074311 19.25 12.625 C22.15665685 14.07832842 23.95513832 15.48324716 26 18 C26 18.99 26 19.98 26 21 C26.66 21.66 27.32 22.32 28 23 C25 23 25 23 22.5390625 20.7265625 C21.56258576 19.69754523 20.59157178 18.6633267 19.625 17.625 C14.76666722 12.5598168 9.66477762 8.19214655 4.01416016 4.03564453 C2.66324631 3.04099744 1.3296143 2.02294519 0 1 C0 0.67 0 0.34 0 0 Z " fill="#24BDD1" transform="translate(320,106)"/>
<path d="M0 0 C6.96050253 0.38669459 11.9394075 2.63438409 18 6 C18 6.66 18 7.32 18 8 C18.556875 8.226875 19.11375 8.45375 19.6875 8.6875 C22.65239972 10.37028092 24.616515 12.56108512 27 15 C29.30166997 17.03793695 31.64451198 19.02464837 34 21 C33.505 22.485 33.505 22.485 33 24 C32.443125 23.41992188 31.88625 22.83984375 31.3125 22.2421875 C21.79847343 12.50316706 12.18343638 6.82557516 0 1 C0 0.67 0 0.34 0 0 Z " fill="#1EBCCC" transform="translate(478,237)"/>
<path d="M0 0 C0.66 0.33 1.32 0.66 2 1 C1.54625 1.721875 1.0925 2.44375 0.625 3.1875 C-0.85494358 5.74894081 -1.97217539 8.23277989 -3 11 C-3.66 11 -4.32 11 -5 11 C-7.61896089 13.82847776 -8.4739075 16.21213403 -9 20 C-9.66 19.67 -10.32 19.34 -11 19 C-11.52650229 14.25284817 -10.03339102 12.09773312 -7.1875 8.375 C-6.47980469 7.43398437 -5.77210938 6.49296875 -5.04296875 5.5234375 C-3.44026552 3.54380789 -1.85172256 1.74073604 0 0 Z " fill="#73D8E2" transform="translate(311,6)"/>
<path d="M0 0 C-1.39533662 4.43970742 -3.56128532 6.90515679 -7 10 C-7.99 10.495 -7.99 10.495 -9 11 C-9 10.34 -9 9.68 -9 9 C-9.99 8.67 -10.98 8.34 -12 8 C-9.82021749 2.45146271 -6.05820197 -0.69236594 0 0 Z " fill="#35C4DB" transform="translate(323,0)"/>
<path d="M0 0 C2.35928645 2.15091642 3.67882496 4.13794974 5.0625 7 C8.36145352 13.18044688 13.17747271 17.99019009 18 23 C16.02 23.99 16.02 23.99 14 25 C13.608125 24.13375 13.21625 23.2675 12.8125 22.375 C11.40112238 19.74691753 10.21982946 17.94993114 8.3125 15.75 C6 13 6 13 6 11 C5.01 11 4.02 11 3 11 C0 4.5 0 4.5 0 0 Z " fill="#B6F7FB" transform="translate(302,83)"/>
<path d="M0 0 C4.54664197 0.90278646 9.15028222 0.9958236 13.7734375 1.1953125 C16.71484375 1.5390625 16.71484375 1.5390625 18.71484375 3.5390625 C-5.00852824 2.46512237 -5.00852824 2.46512237 -11.28515625 1.5390625 C-11.61515625 0.8790625 -11.94515625 0.2190625 -12.28515625 -0.4609375 C-7.63974408 -1.65206883 -4.50231376 -1.15443942 0 0 Z " fill="#23BBD0" transform="translate(445.28515625,229.4609375)"/>
<path d="M0 0 C0 1.32 0 2.64 0 4 C-3.42232972 5.14077657 -6.08673217 5.09815117 -9.6875 5.0625 C-11.45673828 5.04896484 -11.45673828 5.04896484 -13.26171875 5.03515625 C-14.16535156 5.02355469 -15.06898438 5.01195312 -16 5 C-13.20392978 3.53508849 -10.42993234 2.37754078 -7.4375 1.375 C-6.29087891 0.98441406 -6.29087891 0.98441406 -5.12109375 0.5859375 C-3 0 -3 0 0 0 Z " fill="#D3FAFB" transform="translate(666,292)"/>
<path d="M0 0 C2.475 0.495 2.475 0.495 5 1 C5.33 1.99 5.66 2.98 6 4 C7.7202534 5.81961805 7.7202534 5.81961805 9.8125 7.5625 C10.49957031 8.16191406 11.18664062 8.76132813 11.89453125 9.37890625 C13.86555845 10.89648749 15.73964261 11.97902958 18 13 C17.01 13.33 16.02 13.66 15 14 C12.44140625 12.5234375 12.44140625 12.5234375 9.5625 10.375 C8.61503906 9.68148437 7.66757812 8.98796875 6.69140625 8.2734375 C4.04702517 6.03972227 2.02230784 3.80158958 0 1 C0 0.67 0 0.34 0 0 Z " fill="#24BACE" transform="translate(380,209)"/>
<path d="M0 0 C0 0.66 0 1.32 0 2 C-2.57967797 2.86689178 -5.16276127 3.71873789 -7.75 4.5625 C-8.47960937 4.80935547 -9.20921875 5.05621094 -9.9609375 5.31054688 C-10.66992188 5.53935547 -11.37890625 5.76816406 -12.109375 6.00390625 C-12.75874023 6.21861572 -13.40810547 6.4333252 -14.07714844 6.65454102 C-16.33444538 7.06008636 -17.83473482 6.69296911 -20 6 C-12.71428571 2.57142857 -12.71428571 2.57142857 -8 3 C-8 2.34 -8 1.68 -8 1 C-5.07175348 0.02391783 -3.04386724 -0.08226668 0 0 Z " fill="#1BBBCF" transform="translate(666,290)"/>
<path d="M0 0 C2 0 2 0 4.3125 2.25 C5.6428125 3.61125 5.6428125 3.61125 7 5 C8.65533995 6.34736973 10.32012773 7.68334336 12 9 C12.66 9.66 13.32 10.32 14 11 C15.64991582 11.70710678 17.31562256 12.37943989 19 13 C19 13.99 19 14.98 19 16 C14.21270718 14.47922465 10.9873132 11.78330811 7.25 8.5625 C6.66089844 8.07201172 6.07179688 7.58152344 5.46484375 7.07617188 C1.12724468 3.38173405 1.12724468 3.38173405 0 0 Z " fill="#24BBCD" transform="translate(513,261)"/>
<path d="M0 0 C2.16385601 3.24578402 2.7744171 5.65283567 3.625 9.4375 C3.88539063 10.57058594 4.14578125 11.70367187 4.4140625 12.87109375 C5 16 5 16 5 20 C4.34 20 3.68 20 3 20 C2.54427083 18.01432292 2.08854167 16.02864583 1.6328125 14.04296875 C1.01992277 11.72257026 1.01992277 11.72257026 -1 9 C-0.9765625 6.73828125 -0.9765625 6.73828125 -0.625 4.3125 C-0.51414062 3.50425781 -0.40328125 2.69601563 -0.2890625 1.86328125 C-0.19367188 1.24839844 -0.09828125 0.63351563 0 0 Z " fill="#B6F3FA" transform="translate(362,160)"/>
<path d="M0 0 C0.99 0 1.98 0 3 0 C2.979375 1.051875 2.95875 2.10375 2.9375 3.1875 C2.98896802 6.32704904 3.26517187 8.96883396 4 12 C4.66 12 5.32 12 6 12 C6.66 15.3 7.32 18.6 8 22 C4.71457897 18.71457897 3.67442291 15.85399727 2.3125 11.5625 C2.08755859 10.89412109 1.86261719 10.22574219 1.63085938 9.53710938 C0.52778558 6.15412623 0 3.59724263 0 0 Z " fill="#1DB8CF" transform="translate(297,64)"/>
<path d="M0 0 C3.63 2.31 7.26 4.62 11 7 C8.07735566 8.46132217 6.07536854 9.34099246 3 10 C3.2475 9.4225 3.495 8.845 3.75 8.25 C3.87375 7.13625 3.87375 7.13625 4 6 C2.10413616 3.85410577 2.10413616 3.85410577 0 2 C0 1.34 0 0.68 0 0 Z " fill="#C8F8FD" transform="translate(522,271)"/>
<path d="M0 0 C0 0.99 0 1.98 0 3 C-2.91440599 3.6986179 -5.83086087 4.3842031 -8.75 5.0625 C-9.575 5.26166016 -10.4 5.46082031 -11.25 5.66601562 C-12.04921875 5.84970703 -12.8484375 6.03339844 -13.671875 6.22265625 C-14.77160645 6.48187866 -14.77160645 6.48187866 -15.89355469 6.74633789 C-18.20132783 7.02424428 -19.79916037 6.69809241 -22 6 C-20.34908794 4.34908794 -18.19961188 4.47971906 -15.9375 4.125 C-10.79038515 3.24033964 -5.02706215 0 0 0 Z " fill="#F5FCFE" transform="translate(666,297)"/>
<path d="M0 0 C0.2475 0.53625 0.495 1.0725 0.75 1.625 C3.47661669 7.16227893 3.47661669 7.16227893 8 11 C8 11.66 8 12.32 8 13 C8.66 13 9.32 13 10 13 C9.67 14.32 9.34 15.64 9 17 C7.70681744 15.3970551 6.41550844 13.79259858 5.125 12.1875 C4.40570313 11.29417969 3.68640625 10.40085937 2.9453125 9.48046875 C1 7 1 7 -1 4 C-0.625 1.8125 -0.625 1.8125 0 0 Z " fill="#20BACE" transform="translate(306,85)"/>
<path d="M0 0 C0.33 0.66 0.66 1.32 1 2 C3.33163378 2.67258667 5.6652039 3.33847444 8 4 C10.9375 5.5 10.9375 5.5 13 7 C13 7.66 13 8.32 13 9 C7.31497465 7.35433477 2.23318364 4.70967216 -3 2 C-2.01 1.34 -1.02 0.68 0 0 Z " fill="#27BCCC" transform="translate(544,282)"/>
<path d="M0 0 C2 3 2 3 2 5 C2.33 5.66 2.66 6.32 3 7 C2.67 7.66 2.34 8.32 2 9 C0.68 8.67 -0.64 8.34 -2 8 C-2.33 6.02 -2.66 4.04 -3 2 C-2.01 1.34 -1.02 0.68 0 0 Z " fill="#07BDD4" transform="translate(380,200)"/>
<path d="M0 0 C2.12161334 2.12161334 2.92986249 3.7733159 4.125 6.5 C4.47820312 7.2940625 4.83140625 8.088125 5.1953125 8.90625 C6 11 6 11 6 13 C5.01 13 4.02 13 3 13 C3 11.68 3 10.36 3 9 C2.34 9 1.68 9 1 9 C0.67 6.03 0.34 3.06 0 0 Z " fill="#B7F6FB" transform="translate(370,192)"/>
<path d="M0 0 C0 0.33 0 0.66 0 1 C-4.62 1 -9.24 1 -14 1 C-14.33 0.34 -14.66 -0.32 -15 -1 C-9.53891111 -2.4002792 -5.30723432 -1.42705634 0 0 Z " fill="#18B7CB" transform="translate(448,230)"/>
<path d="M0 0 C7.26153846 0.36923077 7.26153846 0.36923077 11 3.5625 C11.99 4.7690625 11.99 4.7690625 13 6 C8.52761347 4.58192622 4.28853694 2.88695626 0 1 C0 0.67 0 0.34 0 0 Z " fill="#31BDCF" transform="translate(478,237)"/>
<path d="M0 0 C1.98 0.99 1.98 0.99 4 2 C4.125 4.875 4.125 4.875 4 8 C3.34 8.66 2.68 9.32 2 10 C1.34 6.7 0.68 3.4 0 0 Z " fill="#EDF6FC" transform="translate(356,180)"/>
<path d="M0 0 C3.36591866 1.44253657 5.51047079 3.33264727 8 6 C6.02 6 4.04 6 2 6 C1.34 4.02 0.68 2.04 0 0 Z " fill="#C2F8FB" transform="translate(322,109)"/>
<path d="M0 0 C1.99954746 -0.04254356 4.00041636 -0.04080783 6 0 C6.33 0.33 6.66 0.66 7 1 C8.155 1.144375 9.31 1.28875 10.5 1.4375 C11.655 1.623125 12.81 1.80875 14 2 C14.33 2.66 14.66 3.32 15 4 C12.87363187 3.71848084 10.74891472 3.42446737 8.625 3.125 C7.44164062 2.96257812 6.25828125 2.80015625 5.0390625 2.6328125 C2 2 2 2 0 0 Z " fill="#20BCD2" transform="translate(398,223)"/>
<path d="M0 0 C1.98 0.66 3.96 1.32 6 2 C5.67 3.98 5.34 5.96 5 8 C2.74754119 5.31158141 1.11786042 3.35358125 0 0 Z " fill="#18BDCC" transform="translate(352,136)"/>
<path d="M0 0 C4.35535069 1.16142685 6.64619703 2.07699505 9 6 C6.03 5.01 3.06 4.02 0 3 C0 2.01 0 1.02 0 0 Z " fill="#BFF8FD" transform="translate(487,242)"/>
<path d="M0 0 C0.66 0.33 1.32 0.66 2 1 C2 1.99 2 2.98 2 4 C1.34 4.66 0.68 5.32 0 6 C-0.99 4.68 -1.98 3.36 -3 2 C-2.01 1.34 -1.02 0.68 0 0 Z " fill="#04BFDA" transform="translate(506,248)"/>
<path d="M0 0 C1.32 0 2.64 0 4 0 C4.33 0.66 4.66 1.32 5 2 C7.01669827 3.13350534 7.01669827 3.13350534 9 4 C9 4.66 9 5.32 9 6 C5.06326356 4.68775452 2.77280706 3.08089673 0 0 Z " fill="#25B9CA" transform="translate(532,277)"/>
<path d="M0 0 C2.475 0.495 2.475 0.495 5 1 C5.66 2.98 6.32 4.96 7 7 C5.83040013 6.02433888 4.66438823 5.044375 3.5 4.0625 C2.8503125 3.51722656 2.200625 2.97195312 1.53125 2.41015625 C1.0259375 1.94480469 0.520625 1.47945313 0 1 C0 0.67 0 0.34 0 0 Z " fill="#2EC1D1" transform="translate(335,118)"/>
<path d="M0 0 C1.98 0 3.96 0 6 0 C6.33 1.32 6.66 2.64 7 4 C4.97954558 3.39816251 2.97888961 2.72693904 1 2 C0.67 1.34 0.34 0.68 0 0 Z " fill="#15BECD" transform="translate(320,106)"/>
<path d="M0 0 C0.66 0.33 1.32 0.66 2 1 C-0.71182212 3.60334924 -1.89133813 3.99456691 -5.75 4.1875 C-6.8225 4.125625 -7.895 4.06375 -9 4 C-6.06195683 2.47657021 -3.13439441 1.07229283 0 0 Z " fill="#A9F1F9" transform="translate(659,293)"/>
</svg>
